<svg viewBox="0 0 80 80" version="1.1" xmlns="http://www.w3.org/2000/svg" xmlns:xlink="http://www.w3.org/1999/xlink" id="SJ4O-pieX"><style>@-webkit-keyframes SJPV_Wpox7_SkysLTse7_Animation{0%{-webkit-transform: translate(0px, 0px);transform: translate(0px, 0px);}50%{-webkit-transform: translate(15px, 15px);transform: translate(15px, 15px);}100%{-webkit-transform: translate(0px, 0px);transform: translate(0px, 0px);}}@keyframes SJPV_Wpox7_SkysLTse7_Animation{0%{-webkit-transform: translate(0px, 0px);transform: translate(0px, 0px);}50%{-webkit-transform: translate(15px, 15px);transform: translate(15px, 15px);}100%{-webkit-transform: translate(0px, 0px);transform: translate(0px, 0px);}}@-webkit-keyframes SJSVuWpoe7_rkVUIaolQ_Animation{0%{-webkit-transform: translate(0px, 0px);transform: translate(0px, 0px);}50%{-webkit-transform: translate(5px, 5px);transform: translate(5px, 5px);}100%{-webkit-transform: translate(0px, 0px);transform: translate(0px, 0px);}}@keyframes SJSVuWpoe7_rkVUIaolQ_Animation{0%{-webkit-transform: translate(0px, 0px);transform: translate(0px, 0px);}50%{-webkit-transform: translate(5px, 5px);transform: translate(5px, 5px);}100%{-webkit-transform: translate(0px, 0px);transform: translate(0px, 0px);}}@-webkit-keyframes S17E_W6igm_H1rbGajlX_Animation{0%{-webkit-transform: rotate(0deg);transform: rotate(0deg);}24.44%{-webkit-transform: rotate(90deg);transform: rotate(90deg);}50%{-webkit-transform: rotate(180deg);transform: rotate(180deg);}74.44%{-webkit-transform: rotate(270deg);transform: rotate(270deg);}100%{-webkit-transform: rotate(360deg);transform: rotate(360deg);}}@keyframes S17E_W6igm_H1rbGajlX_Animation{0%{-webkit-transform: rotate(0deg);transform: rotate(0deg);}24.44%{-webkit-transform: rotate(90deg);transform: rotate(90deg);}50%{-webkit-transform: rotate(180deg);transform: rotate(180deg);}74.44%{-webkit-transform: rotate(270deg);transform: rotate(270deg);}100%{-webkit-transform: rotate(360deg);transform: rotate(360deg);}}#SJ4O-pieX *{-webkit-animation-duration: 3s;animation-duration: 3s;-webkit-animation-iteration-count: infinite;animation-iteration-count: infinite;-webkit-animation-timing-function: cubic-bezier(0, 0, 1, 1);animation-timing-function: cubic-bezier(0, 0, 1, 1);}#HklN_W6ie7{stroke: none;stroke-width: 1;fill: none;}#S1-4uZ6jlQ{-webkit-transform:  translate(-123.000000px, -295.000000px);transform:  translate(-123.000000px, -295.000000px);}#HyfEuWaolm{-webkit-transform:  translate(123.000000px, 295.000000px);transform:  translate(123.000000px, 295.000000px);}#SkNEdZ6sxQ{fill: url(#linearGradient-1);}#SJSVuWpoe7{fill: #FFADC1;}#SJ84dW6oe7{fill: #BFAFFF;}#SJPV_Wpox7{fill: #A5D4FF;}#S1dEO-pjgQ{-webkit-transform:  translate(23.000000px, 19.000000px);transform:  translate(23.000000px, 19.000000px);}#SyFV_bTilQ{fill: #FF898E;}#rJjNd-Tilm{fill: #FF898E;}#ry2EdbTox7{fill: #FF898E;}#BkpNu-aixQ{fill: #FF898E;}#HkCE_bTslX{fill: #FF898E;}#H1kl4OWTjgQ{fill: #FF898E;}#S17E_W6igm_H1rbGajlX{-webkit-animation-name: S17E_W6igm_H1rbGajlX_Animation;animation-name: S17E_W6igm_H1rbGajlX_Animation;-webkit-transform-origin: 50% 50%;transform-origin: 50% 50%;transform-box: fill-box;}#SJSVuWpoe7_rkVUIaolQ{-webkit-animation-name: SJSVuWpoe7_rkVUIaolQ_Animation;animation-name: SJSVuWpoe7_rkVUIaolQ_Animation;-webkit-transform-origin: 50% 50%;transform-origin: 50% 50%;transform-box: fill-box;}#SJPV_Wpox7_SkysLTse7{-webkit-animation-name: SJPV_Wpox7_SkysLTse7_Animation;animation-name: SJPV_Wpox7_SkysLTse7_Animation;-webkit-transform-origin: 50% 50%;transform-origin: 50% 50%;transform-box: fill-box;-webkit-animation-timing-function: cubic-bezier(0.42, 0, 1, 1);animation-timing-function: cubic-bezier(0.42, 0, 1, 1);}</style>
    <!-- Generator: Sketch 50.2 (55047) - http://www.bohemiancoding.com/sketch -->
    <title>Group 2</title>
    <desc>Created with Sketch.</desc>
    <defs>
        <linearGradient x1="25.6456031%" y1="8.23238568%" x2="73.4682938%" y2="93.8106275%" id="linearGradient-1">
            <stop stop-color="#FFF8F6" offset="0%"/>
            <stop stop-color="#FCECEE" offset="100%"/>
        </linearGradient>
        <polygon id="path-2" points="0 44 33.3793103 44 33.3793103 0 0 0"/>
    </defs>
    <g id="HklN_W6ie7" fill-rule="evenodd">
        <g id="S1-4uZ6jlQ">
            <g id="HyfEuWaolm">
                <g id="S17E_W6igm_H1rbGajlX" data-animator-group="true" data-animator-type="1"><g id="S17E_W6igm">
                    <circle id="SkNEdZ6sxQ" cx="40" cy="40" r="40"/>
                    <g id="SJSVuWpoe7_rkVUIaolQ" data-animator-group="true" data-animator-type="0"><circle id="SJSVuWpoe7" cx="21.3186813" cy="5.05494505" r="3.2967033"/></g>
                    <circle id="SJ84dW6oe7" cx="70.1098901" cy="27.9120879" r="3.2967033"/>
                    <g id="SJPV_Wpox7_SkysLTse7" data-animator-group="true" data-animator-type="0"><circle id="SJPV_Wpox7" cx="3.2967033" cy="53.8461538" r="3.2967033"/></g>
                </g></g>
                <g id="S1dEO-pjgQ">
                    <path d="M21.7674555,36.6722518 C21.7641911,36.2768809 21.4281424,35.9422799 21.0408613,35.9491439 C20.6506785,35.9559165 20.322156,36.292714 20.3222467,36.6857054 C20.3222467,37.0761343 20.6605623,37.4113759 21.0505637,37.4075321 C21.4377542,37.4036882 21.7706292,37.0624061 21.7674555,36.6722518 Z M10.9011867,32.2823526 C11.2886491,32.2747564 11.6185318,31.9301796 11.6116403,31.5401168 C11.6046582,31.1447458 11.2664333,30.8139887 10.877792,30.8226832 C10.4921431,30.8312862 10.1596308,31.1785171 10.1654341,31.5666579 C10.1713281,31.9587342 10.5119106,32.2899489 10.9011867,32.2823526 Z M5.07256485,27.8941923 C4.68229139,27.9017886 4.35512906,28.2438028 4.36229253,28.6366112 C4.36954669,29.0274976 4.71176139,29.3609088 5.09822642,29.3536787 C5.48949734,29.3462655 5.81511816,29.0058986 5.80831739,28.6112598 C5.8016073,28.2202819 5.45930192,27.8865961 5.07256485,27.8941923 Z M29.4404458,18.3600773 C30.3815816,18.430457 31.1207798,18.1221225 31.5650968,17.3481289 C32.1331877,16.3582371 32.1271123,15.286434 31.5786076,14.2952609 C31.0829676,13.3995443 30.2235317,13.1612234 29.2168365,13.2734283 C29.8093195,14.945335 29.9290131,16.6218178 29.4404458,18.3600773 Z M26.4084816,18.3511082 C28.2113202,18.3386614 27.8956738,18.7701832 28.2517621,16.9081872 C28.2774236,16.7742004 28.2859473,16.635912 28.2916599,16.4991796 C28.4303956,13.1636945 26.0511239,10.1738845 22.8679106,9.6820503 C19.4837572,9.15919048 16.3573983,11.1794264 15.4688552,14.475832 C15.1154872,15.7865966 15.1603723,17.0844568 15.6338872,18.3576062 L17.1692288,18.3576062 C16.6509195,17.1589549 16.5365759,15.9517921 16.8998277,14.723671 C17.2641675,13.491889 17.9986506,12.5342126 19.0701798,11.8388356 C20.7681051,10.7368305 23.1536336,10.825789 24.7842766,12.0531779 C26.691575,13.4888688 27.2218536,15.5193551 26.4084816,18.3511082 Z M21.7846841,18.3737139 C22.6146499,18.3737139 23.4447065,18.3606264 24.2741283,18.3807611 C24.5661986,18.3878997 24.7386661,18.3013208 24.8900966,18.0425907 C25.7809067,16.5217853 25.4648976,14.5508792 24.1277757,13.3974393 C22.7921953,12.2452807 20.7637526,12.2408876 19.4238198,13.3872805 C18.0668396,14.5483166 17.7383172,16.5488755 18.6818105,18.0576002 C18.7784721,18.2123623 19.0237532,18.3530302 19.205107,18.3596197 C20.0640895,18.3911029 20.9247042,18.3737139 21.7846841,18.3737139 Z M13.7988583,14.8896902 C13.7193347,14.9341694 13.6026335,14.9965868 13.4884712,15.0636717 C10.2581059,16.9623677 6.2219855,16.394754 3.65709812,13.6421666 C3.32277231,13.2833125 3.0426713,13.2563138 2.69039147,13.4777948 C2.42498012,13.6446377 2.16074757,13.8370149 1.95445758,14.0705767 C1.57778565,14.4971564 1.49200528,15.0293513 1.44820833,15.5949515 C1.30140239,17.485502 2.50450378,18.4394261 4.17803703,18.3965942 C7.28825542,18.3168794 10.4018288,18.3738055 13.5140421,18.3738055 L14.0537512,18.3738055 C13.9644344,17.7581433 13.8494561,17.1896145 13.8078353,16.6156859 C13.7664867,16.0451436 13.7988583,15.4690185 13.7988583,14.8896902 Z M9.43575693,1.53493697 C5.79970308,1.56257633 2.89033408,4.51532032 2.91200586,8.15602813 C2.93367765,11.81202 5.89146813,14.7306266 9.55399964,14.7103089 C13.0929385,14.6906319 15.991517,11.6638474 15.96513,8.01526873 C15.9395591,4.46718024 12.9581019,1.50812129 9.43575693,1.53493697 Z M31.8878159,31.5520146 L31.8878159,27.1613832 C31.039896,27.1613832 30.2112903,27.1614747 29.3827753,27.1612917 C26.163926,27.1608341 22.9450766,27.1569902 19.7262273,27.1612917 C18.3844809,27.1631221 17.4085252,28.114392 17.4188624,29.389921 C17.4289275,30.6267366 18.4180314,31.5465233 19.7463576,31.5524722 C20.1996515,31.5544856 20.6530361,31.5521061 21.10633,31.5521061 C24.6875243,31.5520146 28.2687187,31.5520146 31.8878159,31.5520146 Z M10.1614443,42.5184342 C10.1614443,39.5879298 10.1654341,36.7070298 10.1475708,33.8261299 C10.1468453,33.7040408 9.96476609,33.5468076 9.83128966,33.4675504 C8.95553196,32.9476192 8.53669526,31.9790518 8.78777966,31.0080134 C9.0433979,30.0196774 9.90491932,29.3523059 10.9196847,29.3564243 C11.889021,29.3604512 12.7420188,30.0447542 12.9964583,31.0225652 C13.2439156,31.9734691 12.8173713,32.9880715 11.9242943,33.4597711 C11.6607872,33.5990661 11.6081946,33.7561163 11.6091014,34.0246391 C11.6175343,36.7240528 11.6138166,39.423558 11.6153581,42.1229717 C11.6154488,42.2536638 11.6321333,42.3843558 11.6407476,42.5115701 L13.7905161,42.5115701 C13.7905161,41.3331449 13.7655799,40.1769594 13.8086514,39.0234279 C13.8189886,38.7474004 13.9929069,38.4075827 14.2010105,38.2226186 C14.7435305,37.7404857 15.3808079,37.366073 15.9177966,36.8784488 C16.7141213,36.1553409 17.5866147,35.7734235 18.6728335,35.9307482 C18.806582,35.9501507 19.0311887,35.8070117 19.1076293,35.6761366 C19.6486079,34.7495774 20.5998994,34.2978294 21.554002,34.5490548 C22.5489998,34.8111711 23.2262658,35.6763197 23.2195557,36.6767364 C23.2126642,37.6809055 22.5577048,38.5368104 21.5987057,38.7944422 C20.6012596,39.0624159 19.6459782,38.6308026 19.1148835,37.6754142 C19.0654646,37.5865472 18.9958247,37.4323343 18.9415999,37.4348968 C18.4290939,37.4597906 17.8869366,37.2383096 17.4110642,37.5983535 C16.7706131,38.083049 16.1269883,38.5636261 15.493882,39.0579313 C15.3862485,39.1419477 15.2552204,39.2850866 15.2530441,39.4030573 C15.2341833,40.4345911 15.2421629,41.4666742 15.2421629,42.5170614 C15.3635793,42.5252067 15.4362115,42.5343588 15.5088437,42.5343588 C20.2534229,42.5341758 24.9979114,42.5400332 29.7424,42.5279524 C30.9938322,42.5247491 31.9120267,41.5839126 31.9192808,40.3164375 C31.9328824,37.952723 31.924268,35.5888255 31.923452,33.224928 C31.923452,33.1678189 31.9074021,33.1108013 31.8938006,33.0194633 C31.7452718,33.0194633 31.6129742,33.0194633 31.4805859,33.0193717 C27.5369559,33.018548 23.5932353,33.0213852 19.6496053,33.0101281 C19.2920662,33.0091214 18.9221044,32.9607983 18.579799,32.8594844 C16.8540358,32.3486139 15.735808,30.6227097 15.9882526,28.8996427 C16.2622782,27.028037 17.7439391,25.7021714 19.6024533,25.6981445 C23.5309402,25.6895415 27.4595178,25.6952158 31.3881861,25.6950327 L31.9045005,25.6950327 L31.9045005,19.1209834 C31.2091898,19.5825241 30.4994616,19.8396068 29.7078521,19.8393322 C21.0346953,19.8372272 12.3615385,19.849125 3.68847233,19.8177332 C3.06869558,19.8155367 2.44891883,19.508026 1.8317717,19.3326716 C1.71361968,19.2989919 1.60825309,19.2195516 1.48438842,19.1546632 C1.47223771,19.2313578 1.4632607,19.2613767 1.4632607,19.2913956 C1.4624446,26.3220435 1.45872685,33.352783 1.46579965,40.3835224 C1.46688777,41.4489191 2.24761606,42.4025685 3.30227933,42.4916185 C4.36192983,42.5811261 5.43472848,42.5112955 6.5202219,42.5112955 C6.52665996,42.4094326 6.53545562,42.3357581 6.5355463,42.2621752 C6.53636239,40.5997867 6.54270977,38.9373981 6.52675063,37.2751926 C6.52511845,37.103133 6.42909159,36.8951056 6.30985144,36.7674337 C5.80233271,36.2238902 5.27758537,35.6958136 4.74268222,35.1794518 C4.47319041,34.919349 4.34651475,34.6359998 4.35367823,34.252252 C4.37290173,33.2155014 4.35231807,32.1782017 4.36501284,31.141268 C4.36863992,30.8442822 4.3121482,30.6658161 4.01264233,30.5065695 C3.32404179,30.1403937 2.95716297,29.5153964 2.9126406,28.7284983 C2.85098029,27.6380249 3.60758852,26.6887684 4.69290059,26.4606064 C5.68735438,26.2514808 6.75117601,26.8628415 7.12422087,27.8578585 C7.50179956,28.8646817 7.09121447,29.9924042 6.14019492,30.5298158 C5.95185896,30.6362548 5.79562262,30.7053532 5.80215136,30.9871466 C5.82472991,31.9626696 5.80142594,32.9391993 5.82019607,33.9149053 C5.82327908,34.0736944 5.91531616,34.2641497 6.02648606,34.3818458 C6.55821553,34.9445173 7.13183773,35.4681092 7.64434368,36.047163 C7.82596956,36.2525363 7.96679081,36.5738667 7.97241278,36.8455927 C8.00342429,38.3546835 7.98710245,39.8648725 7.98701177,41.3746955 C7.98692109,41.7507555 7.98701177,42.1268156 7.98701177,42.5184342 L10.1614443,42.5184342 Z M2.38290603,11.9867337 C0.775022868,8.34803931 1.13963477,4.9989176 4.05027325,2.23022247 C6.47751307,-0.0786708616 9.43593829,-0.618736643 12.5000021,0.721863859 C16.2269142,2.35258612 17.6918906,5.42238555 17.365635,9.37957319 C18.1182535,9.06593052 18.8849268,8.65765506 19.7005657,8.42226289 C22.8337254,7.51794329 26.1804292,8.70725948 28.1403201,11.3871792 C28.3636574,11.692585 28.5856345,11.7994816 28.9555963,11.796919 C29.5404625,11.7928921 30.1459123,11.7896888 30.7072024,11.9303567 C32.3296846,12.3370763 33.3759149,13.7961966 33.3771843,15.5694171 C33.3813555,20.8312375 33.3781818,26.0930578 33.3777284,31.3548782 C33.3775471,34.2831861 33.3780911,37.2114939 33.3762776,40.1398018 C33.3750081,42.4324044 31.8332284,43.9986958 29.5734689,43.9990619 C20.9904449,44.0003432 12.4073303,44.0002517 3.82430636,43.9991534 C1.55729266,43.9988789 0.00853085577,42.4381702 0.00798679425,40.15353 C0.00608257891,32.0244463 0.0125206403,23.8953626 7.22521171e-06,15.7663704 C-0.00262240549,14.0294837 0.712455792,12.7847973 2.28742323,12.0594929 C2.32496348,12.0421954 2.35506821,12.0084241 2.38290603,11.9867337 Z" id="SyFV_bTilQ"/>
                    <mask id="mask-3" fill="white">
                        <use xlink:href="#path-2"/>
                    </mask>
                    <g id="Hk9E_bToxm"/>
                    <polygon id="rJjNd-Tilm" mask="url(#mask-3)" points="22 6.82758621 23.5172414 6.82758621 23.5172414 3.03448276 22 3.03448276"/>
                    <polygon id="ry2EdbTox7" mask="url(#mask-3)" points="18.9655172 6.82758621 20.4827586 6.82758621 20.4827586 3.03448276 18.9655172 3.03448276"/>
                    <polygon id="BkpNu-aixQ" mask="url(#mask-3)" points="22 1.51724138 23.5172414 1.51724138 23.5172414 0 22 0"/>
                    <polygon id="HkCE_bTslX" mask="url(#mask-3)" points="18.9655172 1.51724138 20.4827586 1.51724138 20.4827586 0 18.9655172 0"/>
                    <path d="M9.4877045,4.55334171 C7.57357194,4.537125 5.97250256,6.23940567 5.96043796,8.30348026 C5.94810917,10.4072905 7.50602779,12.1161148 9.45591384,12.1376422 C11.3748898,12.1587903 12.9958614,10.4554665 13.0038751,8.40922081 C13.012153,6.26595935 11.4658587,4.57012743 9.4877045,4.55334171 M14.4136722,8.39888384 C14.3950028,11.3109692 12.1628756,13.6712122 9.44288054,13.6550903 C6.71892267,13.6388736 4.52545498,11.2219196 4.55196187,8.26573609 C4.57811652,5.35829761 6.81834555,3.01095214 9.54415274,3.03466079 C12.2466233,3.0582746 14.4325176,5.46612452 14.4136722,8.39888384" id="H1kl4OWTjgQ" mask="url(#mask-3)"/>
                </g>
            </g>
        </g>
    </g>
<script>(function(){var a=document.querySelector('#SJ4O-pieX'),b=a.querySelectorAll('style'),c=function(d){b.forEach(function(f){var g=f.textContent;g&amp;&amp;(f.textContent=g.replace(/transform-box:[^;\r\n]*/gi,'transform-box: '+d))})};c('initial'),window.requestAnimationFrame(function(){return c('fill-box')})})();</script></svg>