<svg viewBox="0 0 80 80" version="1.1" xmlns="http://www.w3.org/2000/svg" xmlns:xlink="http://www.w3.org/1999/xlink" id="H1L5PpseX"><style>@-webkit-keyframes H1B89DTolX_BkKeuaigm_Animation{0%{-webkit-transform: translate(0px, 0px);transform: translate(0px, 0px);}50%{-webkit-transform: translate(5px, 5px);transform: translate(5px, 5px);}100%{-webkit-transform: translate(0px, 0px);transform: translate(0px, 0px);}}@keyframes H1B89DTolX_BkKeuaigm_Animation{0%{-webkit-transform: translate(0px, 0px);transform: translate(0px, 0px);}50%{-webkit-transform: translate(5px, 5px);transform: translate(5px, 5px);}100%{-webkit-transform: translate(0px, 0px);transform: translate(0px, 0px);}}@-webkit-keyframes rkD8qDajgm_r1rAPTol7_Animation{0%{-webkit-transform: translate(0px, 0px);transform: translate(0px, 0px);}50%{-webkit-transform: translate(20px, 20px);transform: translate(20px, 20px);}100%{-webkit-transform: translate(0px, 0px);transform: translate(0px, 0px);}}@keyframes rkD8qDajgm_r1rAPTol7_Animation{0%{-webkit-transform: translate(0px, 0px);transform: translate(0px, 0px);}50%{-webkit-transform: translate(20px, 20px);transform: translate(20px, 20px);}100%{-webkit-transform: translate(0px, 0px);transform: translate(0px, 0px);}}@-webkit-keyframes B17I9Dpslm_BJ1jDTsxm_Animation{0%{-webkit-transform: rotate(0deg);transform: rotate(0deg);}25.56%{-webkit-transform: rotate(-90deg);transform: rotate(-90deg);}50%{-webkit-transform: rotate(-180deg);transform: rotate(-180deg);}74.44%{-webkit-transform: rotate(-270deg);transform: rotate(-270deg);}100%{-webkit-transform: rotate(-360deg);transform: rotate(-360deg);}}@keyframes B17I9Dpslm_BJ1jDTsxm_Animation{0%{-webkit-transform: rotate(0deg);transform: rotate(0deg);}25.56%{-webkit-transform: rotate(-90deg);transform: rotate(-90deg);}50%{-webkit-transform: rotate(-180deg);transform: rotate(-180deg);}74.44%{-webkit-transform: rotate(-270deg);transform: rotate(-270deg);}100%{-webkit-transform: rotate(-360deg);transform: rotate(-360deg);}}#H1L5PpseX *{-webkit-animation-duration: 3s;animation-duration: 3s;-webkit-animation-iteration-count: infinite;animation-iteration-count: infinite;-webkit-animation-timing-function: cubic-bezier(0, 0, 1, 1);animation-timing-function: cubic-bezier(0, 0, 1, 1);}#rkg89Dpsxm{stroke: none;stroke-width: 1;fill: none;}#BkbI9P6sxm{-webkit-transform:  translate(-117.000000px, -295.000000px);transform:  translate(-117.000000px, -295.000000px);}#B1MIcPasgQ{-webkit-transform:  translate(117.000000px, 295.000000px);transform:  translate(117.000000px, 295.000000px);}#Sk4I5PpogQ{fill: url(#linearGradient-1);}#H1B89DTolX{fill: #FFADC1;}#SkI8cvpil7{fill: #BFAFFF;}#rkD8qDajgm{fill: #A5D4FF;}#Hk_IcDTigX{-webkit-transform:  translate(14.000000px, 12.000000px);transform:  translate(14.000000px, 12.000000px);fill: url(#linearGradient-2);}#B17I9Dpslm_BJ1jDTsxm{-webkit-animation-name: B17I9Dpslm_BJ1jDTsxm_Animation;animation-name: B17I9Dpslm_BJ1jDTsxm_Animation;-webkit-transform-origin: 50% 50%;transform-origin: 50% 50%;transform-box: fill-box;-webkit-transform: rotate(0deg);transform: rotate(0deg);}#rkD8qDajgm_r1rAPTol7{-webkit-animation-name: rkD8qDajgm_r1rAPTol7_Animation;animation-name: rkD8qDajgm_r1rAPTol7_Animation;-webkit-transform-origin: 50% 50%;transform-origin: 50% 50%;transform-box: fill-box;-webkit-transform: translate(0px, 0px);transform: translate(0px, 0px);}#H1B89DTolX_BkKeuaigm{-webkit-transform-origin: 50% 50%;transform-origin: 50% 50%;transform-box: fill-box;-webkit-animation-name: H1B89DTolX_BkKeuaigm_Animation;animation-name: H1B89DTolX_BkKeuaigm_Animation;-webkit-animation-timing-function: cubic-bezier(0.42, 0, 1, 1);animation-timing-function: cubic-bezier(0.42, 0, 1, 1);-webkit-transform: translate(0px, 0px);transform: translate(0px, 0px);}</style>
    <!-- Generator: Sketch 50.2 (55047) - http://www.bohemiancoding.com/sketch -->
    <title>Group 3</title>
    <desc>Created with Sketch.</desc>
    <defs>
        <linearGradient x1="25.6456031%" y1="8.23238568%" x2="73.4682938%" y2="93.8106275%" id="linearGradient-1">
            <stop stop-color="#F7F5FF" offset="0%"/>
            <stop stop-color="#F0ECFB" offset="100%"/>
        </linearGradient>
        <linearGradient x1="5.97456134%" y1="5.87457487%" x2="100%" y2="79.9191045%" id="linearGradient-2">
            <stop stop-color="#B5C3FC" offset="0%"/>
            <stop stop-color="#9883F4" offset="100%"/>
        </linearGradient>
    </defs>
    <g id="rkg89Dpsxm" fill-rule="evenodd">
        <g id="BkbI9P6sxm">
            <g id="B1MIcPasgQ">
                <g id="B17I9Dpslm_BJ1jDTsxm" data-animator-group="true" data-animator-type="1"><g id="B17I9Dpslm">
                    <circle id="Sk4I5PpogQ" cx="40" cy="40" r="40"/>
                    <g id="H1B89DTolX_BkKeuaigm" data-animator-group="true" data-animator-type="0"><circle id="H1B89DTolX" cx="21.3186813" cy="5.05494505" r="3.2967033"/></g>
                    <circle id="SkI8cvpil7" cx="70.1098901" cy="27.9120879" r="3.2967033"/>
                    <g id="rkD8qDajgm_r1rAPTol7" data-animator-group="true" data-animator-type="0"><circle id="rkD8qDajgm" cx="3.2967033" cy="53.8461538" r="3.2967033"/></g>
                </g></g>
                <g id="Hk_IcDTigX" fill-rule="nonzero">
                    <path d="M50.1260575,30.7363512 C47.8539166,29.4708321 45.8254145,28.3254787 43.7763488,27.2176607 C43.5131876,27.0753387 43.0709413,26.9859313 42.838235,27.1100069 C40.6907767,28.255621 38.5711703,29.453889 36.2688348,30.7337445 C38.5485244,31.9739793 40.6181536,33.1172474 42.7114698,34.2146388 C42.9634383,34.3470556 43.404383,34.3457523 43.6571324,34.2135962 C45.7530516,33.1203753 47.8250235,31.9812779 50.1260575,30.7363512 M19.9955262,6.29866956 C22.2580362,7.5276958 24.2628512,8.6357744 26.2913532,9.69875829 C26.5893944,9.85515611 27.0797958,9.95316542 27.3447791,9.81501401 C29.4729753,8.7077174 31.568374,7.53734034 33.8467621,6.29137099 C31.5722785,5.02767656 29.4693312,3.84556966 27.3466012,2.70073757 C27.1253479,2.5813539 26.7299553,2.57692263 26.5102638,2.69526365 C24.3896163,3.84009574 22.2892719,5.02272396 19.9955262,6.29866956 M3.7185735,30.7251426 C5.99826313,31.9658987 8.0671114,33.1034323 10.1523584,34.2099469 C10.3863663,34.3342831 10.7775942,34.4023162 10.9884355,34.2917951 C13.1444836,33.1579108 15.2781461,31.9815385 17.5791802,30.7298346 C15.3273424,29.476306 13.3095125,28.3189621 11.2497747,27.2416417 C10.9178948,27.0680402 10.3270184,27.1105282 9.98030149,27.2919497 C7.95492297,28.3512843 5.96702737,29.4817799 3.7185735,30.7251426 M51.3455535,32.6707316 C49.6322723,33.5958247 48.2524327,34.5104914 46.7476502,35.1107983 C44.7974978,35.8893989 43.9653252,37.0600366 44.2605031,39.2188479 C44.4778519,40.8096745 44.3031919,42.4541976 44.3031919,44.3085545 C46.6544635,43.0047179 48.7311207,41.8700517 50.7840908,40.6939401 C51.035799,40.5497934 51.3164002,40.1885144 51.3213458,39.9228988 C51.3632538,37.5925712 51.3455535,35.2606796 51.3455535,32.6707316 M35.0886438,8.23565663 C32.7758963,9.48058332 30.6141216,10.6293254 28.4747326,11.8184702 C28.2693575,11.9329012 28.0920946,12.2962655 28.088971,12.546502 C28.060078,14.9122798 28.0715311,17.2788396 28.0715311,19.8536691 C30.4095274,18.5558278 32.5588078,17.3763276 34.6862231,16.1585098 C34.8900364,16.0417328 35.0683405,15.6882737 35.0714641,15.4422078 C35.1000969,13.1108375 35.0886438,10.7789459 35.0886438,8.23565663 M18.7390679,8.21506425 C18.7390679,10.7249887 18.7211074,12.9752927 18.7591109,15.2248148 C18.7648374,15.5519469 18.9506902,16.0279176 19.2039601,16.1749316 C21.3181002,17.4013512 23.4676408,18.5670363 25.7647704,19.8388113 C25.7647704,17.2921334 25.7850737,14.9589385 25.7397818,12.6267862 C25.7340553,12.3194645 25.4651675,11.8885885 25.193937,11.7353186 C23.1344594,10.5714582 21.0434858,9.46233691 18.7390679,8.21506425 M18.8088278,32.6775088 C17.138756,33.576275 15.7274204,34.5144013 14.1854152,35.1207035 C12.2014241,35.9011287 11.4442173,37.1186858 11.7248185,39.2553407 C11.9335775,40.8474706 11.7659456,42.4896478 11.7659456,44.3312322 C14.1161759,43.0203577 16.1954361,41.8770896 18.2510092,40.6926367 C18.5021968,40.5482294 18.7796744,40.1840831 18.7846201,39.9171642 C18.8262677,37.5860546 18.8088278,35.2539024 18.8088278,32.6775088 M2.64302228,32.7434566 C2.57560511,33.0291433 2.53916339,33.1130768 2.5386428,33.1975316 C2.53057356,34.5863443 2.69690396,36.0017446 2.48554201,37.3579744 C2.11201442,39.7511218 3.0259206,41.1214275 5.23715186,41.9756202 C6.68961454,42.5368278 8.00672227,43.4501911 9.54404209,44.2936967 C9.54404209,41.7128719 9.56408503,39.4146058 9.52009467,37.1171218 C9.51436812,36.8066721 9.26239968,36.3677155 8.99533396,36.216531 C6.93533582,35.0487605 4.84384163,33.9370327 2.64302228,32.7434566 M42.0805076,44.322109 C42.0805076,41.6998387 42.092221,39.3645585 42.0638485,37.029539 C42.0607249,36.7740892 41.8951754,36.4002984 41.6908415,36.2863887 C39.554576,35.0964619 37.3946235,33.9482412 35.0675596,32.6949733 C35.0675596,35.2604189 35.0553256,37.5943958 35.0863011,39.9275907 C35.0894247,40.172614 35.2877717,40.5208598 35.4983528,40.6415468 C37.5927102,41.8416394 39.7086724,43.0036753 42.0805076,44.322109 M46.7312514,26.1802218 C46.7312514,23.5342313 46.749212,21.1908705 46.7104276,18.8482918 C46.7049613,18.520899 46.5086966,18.0449283 46.2517825,17.897393 C43.3749694,16.2447893 40.4692631,14.6435362 37.381088,12.9221175 C37.381088,14.1573996 37.4930161,15.1995305 37.3389197,16.2007372 C37.2478154,16.791921 36.8732467,17.5512325 36.3909145,17.8356158 C33.5596535,19.505684 30.6747711,21.0881693 27.7651603,22.6180007 C27.3203111,22.8520761 26.5454041,22.8630239 26.1044593,22.6312945 C23.1953692,21.1019844 20.3123088,19.5179351 17.4831302,17.846303 C17.008607,17.5660903 16.65304,16.7997409 16.5653196,16.2098604 C16.4166894,15.2063077 16.5244528,14.1649589 16.5244528,12.8981365 C13.3740664,14.6482281 10.4371244,16.2711163 7.51554,17.9208527 C7.33515351,18.0227719 7.17350847,18.3332216 7.17168638,18.5482686 C7.14747867,21.0123163 7.1563288,23.4768854 7.1563288,26.0874258 C7.60898697,25.8765494 7.95674506,25.7926159 8.20402813,25.5874741 C9.90845925,24.1733771 11.456191,24.5247508 13.2381909,25.6341328 C15.6110672,27.1113102 18.1945246,28.2464978 20.6366401,29.6191494 C20.9927277,29.8193386 21.1944587,30.509053 21.2415726,30.9941469 C21.3027426,31.6202595 21.0825305,32.2680072 21.0765437,32.907153 C21.0538978,35.4248973 21.0184972,37.9444663 21.0908601,40.4606466 C21.120534,41.4858344 20.7267032,42.0478239 19.8583492,42.4886051 C18.5066218,43.1746702 17.2004466,43.9496215 15.7180497,44.7740987 C19.4015262,46.8262988 22.8640099,48.7804896 26.3639764,50.6640408 C26.7047064,50.8472869 27.350766,50.7299885 27.7326231,50.5243254 C30.7036641,48.924115 33.6450312,47.269426 36.5939469,45.6282915 C37.0637848,45.3665858 37.5247725,45.088719 38.1125253,44.7467291 C36.5655744,43.8917543 35.2180119,43.1123718 33.8366105,42.3965911 C33.0538945,41.99126 32.7199322,41.4501235 32.7334677,40.5430162 C32.7787596,37.461197 32.7784993,34.3780745 32.733728,31.2962554 C32.7201925,30.3888873 33.06743,29.8597413 33.8373914,29.4395525 C36.6480889,27.9071145 39.414796,26.2920463 42.2528248,24.8135655 C42.7601456,24.5492532 43.5798239,24.6303194 44.1628913,24.8268593 C44.9945433,25.1070721 45.7408176,25.6414313 46.7312514,26.1802218 M0.21366132,35.9081666 C0.21366132,34.344449 0.130626267,32.7736935 0.256610485,31.2201418 C0.303984716,30.6388632 0.823799763,30.0883428 1.16114593,29.5443391 C1.24079711,29.4155715 1.44513102,29.3420645 1.60729666,29.2899319 C4.35109757,28.4099335 5.34049015,26.597804 4.93104145,23.7229513 C4.67048318,21.8923148 4.93078115,19.9923419 4.86284338,18.1270371 C4.82666196,17.1289583 5.16999498,16.5411632 6.053186,16.0631071 C9.25068627,14.3330865 12.3950858,12.504014 15.5944081,10.7776426 C16.316735,10.3879514 16.6717814,9.93882895 16.5187262,9.15762181 C15.9838139,6.4295224 17.123919,4.84625508 19.6605227,3.79213374 C21.8444227,2.88450502 23.8161798,1.47640326 25.9394304,0.404817492 C26.4563822,0.143893787 27.3166669,0.104012341 27.8219053,0.357116156 C30.9124231,1.90415132 33.9545255,3.54841379 36.9841336,5.21326865 C37.2907646,5.38191763 37.4477243,5.88656129 37.5882852,6.26712933 C37.6486743,6.43082572 37.4695893,6.67246036 37.4334079,6.88437941 C36.9690363,9.60648357 37.2353211,10.1848949 39.5884148,11.5033285 C42.3072271,13.026904 45.0122436,14.5773278 47.7648946,16.0373015 C48.66058,16.5122296 48.9854318,17.0937688 48.9664301,18.0874163 C48.9125484,20.8666057 48.9721566,23.6476197 48.9315502,26.4270697 C48.9206176,27.173348 49.1267736,27.6355036 49.8264546,27.9441286 C50.9267341,28.4294832 52.0277945,28.9336056 53.0585745,29.5472064 C53.4263755,29.7661633 53.8152607,30.3284135 53.8131783,30.7313986 C53.795478,33.9331227 53.6377375,37.1338042 53.6320109,40.3350071 C53.6301888,41.3826118 53.3173107,42.0045538 52.3883072,42.4961643 C49.7488858,43.8935789 47.1248219,45.3248797 44.5528177,46.8416779 C43.5655075,47.4242598 42.7317731,47.5386909 41.8301009,46.8226495 C40.9419642,46.1172953 40.1589879,46.2262525 39.1659512,46.8051851 C35.501216,48.9405367 31.7560488,50.9366943 28.067106,53.0306006 C27.2518528,53.4935381 26.5935592,53.4846756 25.7814295,53.0235627 C22.0544832,50.9075001 18.2786008,48.8779776 14.5657105,46.7384554 C13.6671619,46.2205179 12.9247921,46.1094754 12.1222935,46.7475786 C11.1388878,47.5298284 10.2510114,47.4253025 9.17546016,46.7840714 C6.61126485,45.2555433 3.9747067,43.8471809 1.344656,42.4323019 C0.522895309,41.9902174 0.152230999,41.4271852 0.195440462,40.4684665 C0.26363853,38.951147 0.21366132,37.4286141 0.21366132,35.9081666" id="rJY85Dpoem"/>
                </g>
            </g>
        </g>
    </g>
<script>(function(){var a=document.querySelector('#H1L5PpseX'),b=a.querySelectorAll('style'),c=function(d){b.forEach(function(f){var g=f.textContent;g&amp;&amp;(f.textContent=g.replace(/transform-box:[^;\r\n]*/gi,'transform-box: '+d))})};c('initial'),window.requestAnimationFrame(function(){return c('fill-box')})})();</script></svg>