<svg id="Layer_1" data-name="Layer 1" xmlns="http://www.w3.org/2000/svg" viewBox="0 0 933.85 318.72"><defs><style>.cls-1{fill:#34a1ff;}</style></defs><title>Logo</title><path class="cls-1" d="M611.47,417.41V345.29H585V333.41h65.84v11.88H624.51v72.12Z" transform="translate(-223.07 -216.66)"/><path class="cls-1" d="M650.82,385.68c0-20.43,11.41-32.89,29.93-32.89s29.86,12.46,29.86,32.89-11.35,32.95-29.86,32.95S650.82,406.23,650.82,385.68Zm46.92,0c0-13.73-6.17-21.77-17-21.77s-17,8-17,21.77,6.11,21.83,17,21.83S697.74,399.48,697.74,385.68Z" transform="translate(-223.07 -216.66)"/><path class="cls-1" d="M725.63,354h12V364.2h.93c2.79-7.16,9.2-11.41,17.64-11.41,8.67,0,14.67,4.49,17.46,11.41h1c3.2-6.92,10.48-11.41,19.27-11.41,12.81,0,20.26,7.75,20.26,21v43.66H801.71V377c0-8.56-4.07-12.75-12.28-12.75S776,370.08,776,377.54v39.87H763.76V375.79c0-7.16-4.78-11.53-12.23-11.53-7.62,0-13.39,6.23-13.39,14.38v38.77H725.63Z" transform="translate(-223.07 -216.66)"/><path class="cls-1" d="M828.66,385.68c0-20.43,11.41-32.89,29.93-32.89s29.86,12.46,29.86,32.89-11.35,32.95-29.86,32.95S828.66,406.23,828.66,385.68Zm46.92,0c0-13.73-6.17-21.77-17-21.77s-17,8-17,21.77,6.11,21.83,17,21.83S875.58,399.48,875.58,385.68Z" transform="translate(-223.07 -216.66)"/><path class="cls-1" d="M926.64,352.79c14.26,0,23.57,6.64,24.79,17.82h-12c-1.16-4.66-5.7-7.63-12.8-7.63s-12.29,3.32-12.29,8.27c0,3.78,3.21,6.17,10.07,7.74L935,381.43c12,2.8,17.7,8,17.7,17.29,0,11.94-11.12,19.91-26.26,19.91s-24.91-6.81-26-18H912.9c1.57,4.89,6.23,7.91,13.79,7.91C934.5,408.5,940,405,940,400c0-3.79-3-6.23-9.32-7.75l-11.06-2.56C907.6,386.79,902,381.38,902,372,902,360.71,912.32,352.79,926.64,352.79Z" transform="translate(-223.07 -216.66)"/><path class="cls-1" d="M1009.24,374.74c-1.45-6.17-6.58-10.77-15-10.77-10.48,0-16.88,8-16.88,21.54,0,13.74,6.46,21.95,16.88,21.95,7.92,0,13.33-3.61,15-10.42h12.17c-1.63,12.74-11.41,21.59-27.07,21.59-18.46,0-29.75-12.46-29.75-33.12,0-20.32,11.24-32.72,29.69-32.72,15.89,0,25.5,9.26,27.13,21.95Z" transform="translate(-223.07 -216.66)"/><path class="cls-1" d="M1032.06,399.48c0-11.41,8.5-18,23.58-18.92l17.17-1V374.1c0-6.69-4.43-10.48-13-10.48-7,0-11.82,2.56-13.22,7.05H1034.5c1.29-10.89,11.53-17.88,25.91-17.88,15.89,0,24.86,7.92,24.86,21.31v43.31h-12V408.5h-1c-3.79,6.35-10.71,10-19,10C1041,418.46,1032.06,411.07,1032.06,399.48Zm40.75-5.41v-5.3l-15.49,1c-8.73.58-12.69,3.55-12.69,9.14s4.95,9,11.76,9C1065.82,407.92,1072.81,401.93,1072.81,394.07Z" transform="translate(-223.07 -216.66)"/><path class="cls-1" d="M1103.08,354h12.05v10.07h.93c3.09-7,9.37-11.3,18.92-11.3,14.15,0,22,8.5,22,23.58v41h-12.52v-37.9c0-10.18-4.42-15.25-13.68-15.25s-15.13,6.17-15.13,16.07v37.08h-12.52Z" transform="translate(-223.07 -216.66)"/><path class="cls-1" d="M500.42,401.14a6.7,6.7,0,0,0-6.56-8.07h-2a6.59,6.59,0,0,0-6.46,5.13C475.46,443.52,435.78,478.1,388,480c-73.57,3-131.32-70.82-99.47-147.66a95.45,95.45,0,0,1,51.6-51.55c52.72-21.8,104-1.44,130,37.25A6.64,6.64,0,0,0,479.2,320l1.18-.74a7.19,7.19,0,0,0,2.15-10.11C453.92,267,399.1,244,341.67,263.85a112.89,112.89,0,0,0-69.58,68.55c-30.19,84,31.66,163,111.6,163A119.6,119.6,0,0,0,500.42,401.14Z" transform="translate(-223.07 -216.66)"/><path class="cls-1" d="M375.12,216.83c-81.95,3.68-148.27,70.09-151.89,152a159.22,159.22,0,0,0,6.25,51.88,7.55,7.55,0,0,0,10.5,4.62l.14-.07a7.57,7.57,0,0,0,4-9,143.48,143.48,0,0,1-5.66-46.11c3-74.37,63.16-134.84,137.51-138.1,82.37-3.62,150.53,62.35,150.53,143.93,0,79.45-64.63,144.08-144.08,144.08a144.29,144.29,0,0,1-31.1-3.39,7.25,7.25,0,0,0-7.23,2.6,7.77,7.77,0,0,0,4.37,12.42,159.56,159.56,0,0,0,39.75,3.55c82.61-3,149.88-69.69,153.42-152.28C545.65,289.52,468.64,212.62,375.12,216.83Z" transform="translate(-223.07 -216.66)"/><path class="cls-1" d="M451.11,428a13.69,13.69,0,0,0-1.65-5.22,28.49,28.49,0,0,0-5.15-6.23c-4-3.95-8.16-8.09-11.79-11.73l-6.19-6.2c.31-.64.63-1.29.94-1.94l.11-.22a86,86,0,0,0,3.64-8.15,60.48,60.48,0,0,0-45.09-79.95c-1.88-.36-3.83-.61-5.6-.83l-2.61-.33-.2,0h-6.71l-.38,0-2.2.29c-1.55.2-3.32.42-5.05.75a59.57,59.57,0,0,0-38,23.93,58.71,58.71,0,0,0-11.37,30.88,2.08,2.08,0,0,1-.08.33l-.1.43a2.6,2.6,0,0,0-.06.56l0,6.88a1.27,1.27,0,0,0,0,.2c.11.76.2,1.51.3,2.26.2,1.57.43,3.35.76,5.1a60.38,60.38,0,0,0,90.24,40.94q3.9,3.95,7.84,7.86c3.39,3.38,6.9,6.88,10.3,10.35a24.84,24.84,0,0,0,8,5.77,13.86,13.86,0,0,0,10.6,0,15.1,15.1,0,0,0,5.86-4A15.56,15.56,0,0,0,451.11,428Zm-34.92-20.86c.63.67,1.28,1.35,1.94,2l10.7,10.71q5.24,5.22,10.44,10.46a2.13,2.13,0,0,1,.67,2.05,1.68,1.68,0,0,1-1.3,1.17c-.51.13-1.05.16-2-.8q-10.58-10.61-21.18-21.2L413.91,410l-.3-.3Zm4.91-39.62a47.14,47.14,0,0,1-47,47.15h-.1a46.39,46.39,0,0,1-33-13.65A46.93,46.93,0,0,1,374,320.82h0a46.91,46.91,0,0,1,33.25,13.67A46.31,46.31,0,0,1,421.1,367.54Z" transform="translate(-223.07 -216.66)"/><path class="cls-1" d="M372.9,326.27h-.56c-4.4,0-7.4,2.68-7.47,6.68s2.92,6.74,7.25,6.94a33.89,33.89,0,0,1,5.58.6A30.29,30.29,0,0,1,402.07,370c.08,4.09,2.94,7.06,6.79,7.06H409a6.67,6.67,0,0,0,4.8-2.1,7.12,7.12,0,0,0,1.84-5.29,59.09,59.09,0,0,0-.77-7.5C411.34,342.11,393.33,326.68,372.9,326.27Z" transform="translate(-223.07 -216.66)"/></svg>