<svg id="Layer_1" data-name="Layer 1" xmlns="http://www.w3.org/2000/svg" viewBox="0 0 933.93 318.72"><defs><style>.cls-1{fill:#34a1ff;}</style></defs><title>logo</title><path class="cls-1" d="M497.42,399.14a6.7,6.7,0,0,0-6.56-8.07h-2a6.59,6.59,0,0,0-6.46,5.13C472.46,441.52,432.78,476.1,385,478c-73.57,3-131.32-70.82-99.47-147.66a95.45,95.45,0,0,1,51.6-51.55c52.72-21.8,104-1.44,130,37.25A6.64,6.64,0,0,0,476.2,318l1.18-.74a7.19,7.19,0,0,0,2.15-10.11C450.92,265,396.1,242,338.67,261.85a112.89,112.89,0,0,0-69.58,68.55c-30.19,84,31.66,163,111.6,163A119.6,119.6,0,0,0,497.42,399.14Z" transform="translate(-220.07 -214.66)"/><path class="cls-1" d="M372.12,214.83c-81.95,3.68-148.27,70.09-151.89,152a159.22,159.22,0,0,0,6.25,51.88,7.55,7.55,0,0,0,10.5,4.62l.14-.07a7.57,7.57,0,0,0,4-9,143.48,143.48,0,0,1-5.66-46.11c3-74.37,63.16-134.84,137.51-138.1,82.37-3.62,150.53,62.35,150.53,143.93,0,79.45-64.63,144.08-144.08,144.08a144.29,144.29,0,0,1-31.1-3.39,7.25,7.25,0,0,0-7.23,2.6,7.77,7.77,0,0,0,4.37,12.42,159.56,159.56,0,0,0,39.75,3.55c82.61-3,149.88-69.69,153.42-152.28C542.65,287.52,465.64,210.62,372.12,214.83Z" transform="translate(-220.07 -214.66)"/><path class="cls-1" d="M448.11,426a13.69,13.69,0,0,0-1.65-5.22,28.49,28.49,0,0,0-5.15-6.23c-4-3.95-8.16-8.09-11.79-11.73l-6.19-6.2c.31-.64.63-1.29.94-1.94l.11-.22a86,86,0,0,0,3.64-8.15,60.48,60.48,0,0,0-45.09-79.95c-1.88-.36-3.83-.61-5.6-.83l-2.61-.33-.2,0h-6.71l-.38,0-2.2.29c-1.55.2-3.32.42-5.05.75a59.57,59.57,0,0,0-38,23.93,58.71,58.71,0,0,0-11.37,30.88,2.08,2.08,0,0,1-.08.33l-.1.43a2.6,2.6,0,0,0-.06.56l0,6.88a1.27,1.27,0,0,0,0,.2c.11.76.2,1.51.3,2.26.2,1.57.43,3.35.76,5.1a60.38,60.38,0,0,0,90.24,40.94q3.9,3.95,7.84,7.86c3.39,3.38,6.9,6.88,10.3,10.35a24.84,24.84,0,0,0,8,5.77,13.86,13.86,0,0,0,10.6,0,15.1,15.1,0,0,0,5.86-4A15.56,15.56,0,0,0,448.11,426Zm-34.92-20.86c.63.67,1.28,1.35,1.94,2l10.7,10.71q5.24,5.22,10.44,10.46a2.13,2.13,0,0,1,.67,2.05,1.68,1.68,0,0,1-1.3,1.17c-.51.13-1.05.16-2-.8q-10.58-10.61-21.18-21.2L410.91,408l-.3-.3Zm4.91-39.62a47.14,47.14,0,0,1-47,47.15h-.1a46.39,46.39,0,0,1-33-13.65A46.93,46.93,0,0,1,371,318.82h0a46.91,46.91,0,0,1,33.25,13.67A46.31,46.31,0,0,1,418.1,365.54Z" transform="translate(-220.07 -214.66)"/><path class="cls-1" d="M369.9,324.27h-.56c-4.4,0-7.4,2.68-7.47,6.68s2.92,6.74,7.25,6.94a33.89,33.89,0,0,1,5.58.6A30.29,30.29,0,0,1,399.07,368c.08,4.09,2.94,7.06,6.79,7.06H406a6.67,6.67,0,0,0,4.8-2.1,7.12,7.12,0,0,0,1.84-5.29,59.09,59.09,0,0,0-.77-7.5C408.34,340.11,390.33,324.68,369.9,324.27Z" transform="translate(-220.07 -214.66)"/><path class="cls-1" d="M607.89,415.09V344.56H582V333h64.39v11.61H620.64v70.53Z" transform="translate(-220.07 -214.66)"/><path class="cls-1" d="M646.37,384.07c0-20,11.15-32.16,29.26-32.16s29.2,12.18,29.2,32.16-11.1,32.22-29.2,32.22S646.37,404.16,646.37,384.07Zm45.88,0c0-13.44-6-21.29-16.62-21.29S659,370.63,659,384.07s6,21.35,16.63,21.35S692.25,397.56,692.25,384.07Z" transform="translate(-220.07 -214.66)"/><path class="cls-1" d="M719.51,353.1h11.78v10h.91c2.74-7,9-11.15,17.25-11.15,8.49,0,14.35,4.38,17.08,11.15h1c3.13-6.77,10.25-11.15,18.84-11.15,12.53,0,19.81,7.57,19.81,20.49v42.69H793.91v-39.5c0-8.37-4-12.47-12-12.47s-13.09,5.69-13.09,13v39h-12v-40.7c0-7-4.67-11.27-12-11.27-7.45,0-13.09,6.09-13.09,14.06v37.91H719.51Z" transform="translate(-220.07 -214.66)"/><path class="cls-1" d="M820.26,384.07c0-20,11.16-32.16,29.26-32.16s29.21,12.18,29.21,32.16-11.11,32.22-29.21,32.22S820.26,404.16,820.26,384.07Zm45.88,0c0-13.44-6-21.29-16.62-21.29s-16.62,7.85-16.62,21.29,6,21.35,16.62,21.35S866.14,397.56,866.14,384.07Z" transform="translate(-220.07 -214.66)"/><path class="cls-1" d="M903.31,393c1.08,7.8,8.71,12.75,19.7,12.75,10.25,0,17.76-5.3,17.76-12.58,0-6.26-4.78-10-15.65-12.58L914.53,378c-14.86-3.47-21.64-10.64-21.64-22.71,0-14.63,12-24.36,29.89-24.36,16.68,0,28.86,9.73,29.6,23.56H940c-1.19-7.57-7.8-12.29-17.36-12.29-10.08,0-16.79,4.84-16.79,12.24,0,5.86,4.32,9.22,15,11.72l9,2.22c16.85,3.93,23.79,10.76,23.79,23.12,0,15.71-12.18,25.56-31.65,25.56-18.22,0-30.45-9.4-31.37-24.08Z" transform="translate(-220.07 -214.66)"/><path class="cls-1" d="M1009.59,373.37c-1.43-6-6.43-10.53-14.63-10.53-10.25,0-16.51,7.85-16.51,21.06,0,13.43,6.32,21.46,16.51,21.46,7.74,0,13-3.53,14.63-10.19h11.9c-1.6,12.47-11.16,21.12-26.48,21.12-18,0-29.08-12.18-29.08-32.39,0-19.87,11-32,29-32,15.54,0,24.93,9,26.53,21.46Z" transform="translate(-220.07 -214.66)"/><path class="cls-1" d="M1031.9,397.56c0-11.16,8.31-17.59,23-18.5l16.8-1v-5.35c0-6.55-4.33-10.25-12.7-10.25-6.83,0-11.55,2.51-12.92,6.89h-11.84c1.25-10.64,11.27-17.47,25.33-17.47,15.54,0,24.31,7.74,24.31,20.83v42.35h-11.78v-8.71h-1c-3.7,6.21-10.48,9.74-18.62,9.74C1040.61,416.12,1031.9,408.89,1031.9,397.56Zm39.85-5.29v-5.18l-15.15,1c-8.54.57-12.41,3.48-12.41,8.94s4.84,8.83,11.5,8.83C1064.92,405.82,1071.75,400,1071.75,392.27Z" transform="translate(-220.07 -214.66)"/><path class="cls-1" d="M1101.34,353.1h11.79V363h.91c3-6.89,9.16-11,18.5-11,13.83,0,21.46,8.31,21.46,23v40.13h-12.24V378c0-10-4.33-14.91-13.38-14.91s-14.8,6-14.8,15.71v36.26h-12.24Z" transform="translate(-220.07 -214.66)"/></svg>