<svg xmlns="http://www.w3.org/2000/svg" viewBox="0 0 1878.67 500"><defs><style>.cls-1{fill:#fff;}.cls-2{fill:#242828;}.cls-3{fill:#00e8b4;}</style></defs><title>Asset 44</title><g id="Layer_2" data-name="Layer 2"><g id="Layer_1-2" data-name="Layer 1"><path class="cls-1" d="M711.68,348V203.46H656.43V171.71h149.5v31.75H750.68V348Z"/><path class="cls-1" d="M828.18,342.09a55.3,55.3,0,0,1-22.75-22.25q-8-14.37-8-33.88t8-33.87A54.54,54.54,0,0,1,828.18,230q14.76-7.74,34.25-7.75T896.68,230a54.43,54.43,0,0,1,22.75,22.13q8,14.37,8,33.87t-8,33.88a55.19,55.19,0,0,1-22.75,22.25Q881.94,350,862.43,350T828.18,342.09ZM889.93,286q0-17.74-7.12-26.5t-20.38-8.75q-27.49,0-27.5,35.25t27.5,35.25Q889.94,321.21,889.93,286Z"/><path class="cls-1" d="M1132.93,235q10.24,12.75,10.25,39v74h-37.75V275.21q0-12.49-3.87-18t-13.13-5.5q-10.76,0-16.75,7.5t-6,21V348h-37.75V275.21q0-12.49-3.87-18t-13.13-5.5q-10.75,0-16.75,7.5t-6,21V348H950.43V225.21h36.75v16.5a38.42,38.42,0,0,1,15.38-14.5,47.32,47.32,0,0,1,22.12-5q27.25,0,36.5,22.75a43.91,43.91,0,0,1,16.75-16.62,47.17,47.17,0,0,1,23.75-6.13Q1122.68,222.21,1132.93,235Z"/><path class="cls-1" d="M1196.43,342.09a55.24,55.24,0,0,1-22.75-22.25q-8-14.37-8-33.88t8-33.87A54.49,54.49,0,0,1,1196.43,230q14.74-7.74,34.25-7.75t34.25,7.75a54.49,54.49,0,0,1,22.75,22.13q8,14.37,8,33.87t-8,33.88a55.24,55.24,0,0,1-22.75,22.25q-14.75,7.88-34.25,7.87T1196.43,342.09ZM1258.18,286q0-17.74-7.12-26.5t-20.38-8.75q-27.5,0-27.5,35.25t27.5,35.25Q1258.18,321.21,1258.18,286Z"/><path class="cls-1" d="M1344.93,344.84q-18.51-5.37-30.75-14.88l12.5-27.75A97.82,97.82,0,0,0,1383.93,320q16.5,0,25.38-5.37t8.87-14.88q0-8.49-8.12-13.25t-28.88-9.25q-23.25-4.74-37.12-11.5t-20.25-16.62q-6.37-9.87-6.38-24.38a48,48,0,0,1,8.88-28.5q8.87-12.5,24.87-19.62t37-7.13a119.25,119.25,0,0,1,36.13,5.5q17.37,5.5,27.62,14.75l-12.5,27.75q-24.26-17.75-51-17.75-15.26,0-24,5.88t-8.75,16.12a14.5,14.5,0,0,0,3.38,9.88q3.38,3.87,11.25,6.87a170.55,170.55,0,0,0,22.37,6.25q34,7.5,48.88,19.25t14.87,32.5q0,25-19.25,39.38t-53.75,14.37A137.36,137.36,0,0,1,1344.93,344.84Z"/><path class="cls-1" d="M1492.68,333q-17.25-17-17.25-46.25,0-19.24,8.25-33.87a56.89,56.89,0,0,1,23.25-22.63q15-8,34.75-8a82.46,82.46,0,0,1,26,4.13q12.49,4.13,20.25,11.12l-10,25.75a56.31,56.31,0,0,0-15.88-8.87,49.42,49.42,0,0,0-16.87-3.13q-14.76,0-22.88,8.75t-8.12,26q0,17.25,8.12,26.13t22.88,8.87a49.4,49.4,0,0,0,16.87-3.12,56.09,56.09,0,0,0,15.88-8.88l10,26q-8.25,7-21,11a89.58,89.58,0,0,1-27,4Q1509.93,350,1492.68,333Z"/><path class="cls-1" d="M1729.17,225.21V348h-37.5V329.71a38.33,38.33,0,0,1-15.62,14.88,48.08,48.08,0,0,1-22.88,5.37q-16,0-28.25-7.75t-19.12-22.12q-6.88-14.37-6.88-33.38t6.88-33.62a53.9,53.9,0,0,1,19.25-22.75,50.06,50.06,0,0,1,28.12-8.13,48.08,48.08,0,0,1,22.88,5.38,38.38,38.38,0,0,1,15.62,14.87V225.21Zm-44.62,87q7.13-9,7.12-26t-7.12-26.12q-7.12-9.12-20.38-9.13t-20.5,9.38q-7.25,9.38-7.25,26.37,0,16.76,7.25,25.63t20.5,8.87Q1677.43,321.21,1684.55,312.21Z"/><path class="cls-1" d="M1867.92,235.09Q1878.67,248,1878.67,274v74h-37.75V275.71q0-12.49-4.62-18.25t-14.38-5.75q-11.75,0-18.87,7.5t-7.13,20V348h-37.75V225.21h36.75v17.5a43,43,0,0,1,16.88-15.25,51,51,0,0,1,23.37-5.25Q1857.17,222.21,1867.92,235.09Z"/><circle class="cls-1" cx="250" cy="250" r="250"/><path class="cls-2" d="M354.48,145.52A104.21,104.21,0,1,0,243.94,316.71h0c2,.74,3.91,1.41,5.9,2A104.5,104.5,0,0,0,279,323.41c1.2,0,2.41,0,3.61,0a104.5,104.5,0,0,0,29.14-4.67q3-.92,5.9-2a104.28,104.28,0,0,0,36.84-171.2ZM244,256.05a52.11,52.11,0,1,1,73.69,0A52.12,52.12,0,0,1,244,256.05Z"/><polygon class="cls-3" points="115 348.16 151.84 385 267.31 269.54 191.01 272.15 115 348.16"/></g></g></svg>