<svg viewBox="0 0 80 80" version="1.1" xmlns="http://www.w3.org/2000/svg" xmlns:xlink="http://www.w3.org/1999/xlink" id="Hkv0gICJm"><style>@-webkit-keyframes rJwD0gIRyX_BkuObIRJ7_Animation{0%{-webkit-transform: translate(0px, 0px);transform: translate(0px, 0px);}48.89%{-webkit-transform: translate(20px, 5px);transform: translate(20px, 5px);}100%{-webkit-transform: translate(0px, 0px);transform: translate(0px, 0px);}}@keyframes rJwD0gIRyX_BkuObIRJ7_Animation{0%{-webkit-transform: translate(0px, 0px);transform: translate(0px, 0px);}48.89%{-webkit-transform: translate(20px, 5px);transform: translate(20px, 5px);}100%{-webkit-transform: translate(0px, 0px);transform: translate(0px, 0px);}}@-webkit-keyframes H1SDCl801m_rJ1m-IRJX_Animation{0%{-webkit-transform: translate(10px, 10px);transform: translate(10px, 10px);}47.78%{-webkit-transform: translate(0px, 0px);transform: translate(0px, 0px);}100%{-webkit-transform: translate(10px, 10px);transform: translate(10px, 10px);}}@keyframes H1SDCl801m_rJ1m-IRJX_Animation{0%{-webkit-transform: translate(10px, 10px);transform: translate(10px, 10px);}47.78%{-webkit-transform: translate(0px, 0px);transform: translate(0px, 0px);}100%{-webkit-transform: translate(10px, 10px);transform: translate(10px, 10px);}}@-webkit-keyframes S1UD0gUAyQ_S1lkbLCJm_Animation{0%{-webkit-transform: translate(-10px, 0px);transform: translate(-10px, 0px);}43.33%{-webkit-transform: translate(5px, 0px);transform: translate(5px, 0px);}100%{-webkit-transform: translate(-10px, 0px);transform: translate(-10px, 0px);}}@keyframes S1UD0gUAyQ_S1lkbLCJm_Animation{0%{-webkit-transform: translate(-10px, 0px);transform: translate(-10px, 0px);}43.33%{-webkit-transform: translate(5px, 0px);transform: translate(5px, 0px);}100%{-webkit-transform: translate(-10px, 0px);transform: translate(-10px, 0px);}}#Hkv0gICJm *{-webkit-animation-duration: 3s;animation-duration: 3s;-webkit-animation-iteration-count: infinite;animation-iteration-count: infinite;-webkit-animation-timing-function: cubic-bezier(0, 0, 1, 1);animation-timing-function: cubic-bezier(0, 0, 1, 1);}#r1xDAlUCym{stroke: none;stroke-width: 1;fill: none;}#BkZP0l8Akm{-webkit-transform:  translate(-1020.000000px, -174.000000px);transform:  translate(-1020.000000px, -174.000000px);}#SkzD0eICJm{-webkit-transform:  translate(1020.000000px, 174.000000px);transform:  translate(1020.000000px, 174.000000px);}#rkVD0lIAkm{fill: url(#linearGradient-1);}#H1SDCl801m{fill: #FFADC1;}#S1UD0gUAyQ{fill: #BFAFFF;}#rJwD0gIRyX{fill: #A5D4FF;}#Sk_DReIAkQ{-webkit-transform:  translate(17.000000px, 17.000000px);transform:  translate(17.000000px, 17.000000px);fill: #FF898E;}#S1UD0gUAyQ_S1lkbLCJm{-webkit-animation-name: S1UD0gUAyQ_S1lkbLCJm_Animation;animation-name: S1UD0gUAyQ_S1lkbLCJm_Animation;-webkit-transform-origin: 50% 50%;transform-origin: 50% 50%;transform-box: fill-box;-webkit-transform: translate(-10px, 0px);transform: translate(-10px, 0px);-webkit-animation-timing-function: cubic-bezier(0.42, 0, 1, 1);animation-timing-function: cubic-bezier(0.42, 0, 1, 1);}#H1SDCl801m_rJ1m-IRJX{-webkit-animation-name: H1SDCl801m_rJ1m-IRJX_Animation;animation-name: H1SDCl801m_rJ1m-IRJX_Animation;-webkit-transform-origin: 50% 50%;transform-origin: 50% 50%;transform-box: fill-box;-webkit-transform: translate(10px, 10px);transform: translate(10px, 10px);-webkit-animation-timing-function: cubic-bezier(0.42, 0, 0.58, 1);animation-timing-function: cubic-bezier(0.42, 0, 0.58, 1);}#rJwD0gIRyX_BkuObIRJ7{-webkit-transform-origin: 50% 50%;transform-origin: 50% 50%;transform-box: fill-box;-webkit-transform: translate(0px, 0px);transform: translate(0px, 0px);-webkit-animation-name: rJwD0gIRyX_BkuObIRJ7_Animation;animation-name: rJwD0gIRyX_BkuObIRJ7_Animation;}</style>
    <!-- Generator: Sketch 50.2 (55047) - http://www.bohemiancoding.com/sketch -->
    <title>Group 2</title>
    <desc>Created with Sketch.</desc>
    <defs>
        <linearGradient x1="25.6456031%" y1="8.23238568%" x2="73.4682938%" y2="93.8106275%" id="linearGradient-1">
            <stop stop-color="#FFF8F6" offset="0%"/>
            <stop stop-color="#FCECEE" offset="100%"/>
        </linearGradient>
    </defs>
    <g id="r1xDAlUCym" fill-rule="evenodd">
        <g id="BkZP0l8Akm">
            <g id="SkzD0eICJm">
                <g id="HJ7DRgLAkQ">
                    <circle id="rkVD0lIAkm" cx="40" cy="40" r="40"/>
                    <g id="H1SDCl801m_rJ1m-IRJX" data-animator-group="true" data-animator-type="0"><circle id="H1SDCl801m" cx="21.3186813" cy="5.05494505" r="3.2967033"/></g>
                    <g id="S1UD0gUAyQ_S1lkbLCJm" data-animator-group="true" data-animator-type="0"><circle id="S1UD0gUAyQ" cx="70.1098901" cy="27.9120879" r="3.2967033"/></g>
                    <g id="rJwD0gIRyX_BkuObIRJ7" data-animator-group="true" data-animator-type="0"><circle id="rJwD0gIRyX" cx="3.2967033" cy="53.8461538" r="3.2967033"/></g>
                </g>
                <g id="Sk_DReIAkQ">
                    <g id="B1FD0gLRk7">
                        <path d="M23.011316,4.132364 C12.625436,4.126844 4.145336,12.562324 4.126016,22.918304 C4.106236,33.377784 12.533896,41.861104 22.958416,41.875824 C33.379256,41.890544 41.857976,33.453224 41.867636,23.059524 C41.877296,12.598664 33.447796,4.137884 23.011316,4.132364 M45.993836,22.990524 C45.995216,35.705384 35.691216,45.996044 22.954276,46.000184 C10.326356,46.003864 -0.004324,35.660304 0.000276,23.017204 C0.004416,10.300964 10.324516,-0.004416 23.044436,0.006624 C35.689836,0.017204 45.992456,10.335464 45.993836,22.990524" id="rJqD0eICkQ"/>
                    </g>
                    <path d="M18.1721222,16.1079027 L18.1721222,23.4637513 C20.6575139,23.4637513 23.0995771,23.5377002 25.5347262,23.4398671 C27.4347233,23.3636217 28.8756236,21.6637156 28.8779283,19.7488525 C28.880233,17.8601701 27.5135442,16.3444473 25.6001798,16.1460254 C25.0936061,16.0936641 24.5782745,16.1101992 24.0670914,16.1092806 C22.1205393,16.1060654 20.1739872,16.1079027 18.1721222,16.1079027 M30.6138305,25.4038764 C31.9519411,26.7202587 32.2414118,28.4050075 32.5023041,30.102617 C32.5709843,30.5476883 32.6599458,30.9900038 32.728626,31.4355344 C32.9282132,32.7248174 32.2575447,33.7697475 31.1121073,33.9644949 C29.8721771,34.1753182 28.8806939,33.4335326 28.6423877,32.104749 C28.4695349,31.1401982 28.3326356,30.1687576 28.1399624,29.2087999 C27.949594,28.2639994 27.1687606,27.6030524 26.2215277,27.598 C23.6227447,27.5837613 21.0235007,27.5961627 18.4247176,27.6002965 C18.3500453,27.6002965 18.2753729,27.6250992 18.1283329,27.6508206 C18.1283329,28.964447 18.1343251,30.273021 18.1241844,31.5820543 C18.1218797,31.9127575 18.1168093,32.2567806 18.0269259,32.5704893 C17.7609632,33.4969174 16.8865589,34.0614093 15.9024508,33.9902163 C14.9390849,33.9199419 14.1103137,33.2227094 14.0596103,32.2402454 C13.9771019,30.6551669 14.0047584,29.0645766 14.0033755,27.4762828 C13.9978442,23.1596881 14.0047584,18.8435526 14.0001489,14.5274172 C13.9983052,12.7678009 14.7394977,12.0103988 16.497986,12.0081022 C19.3327706,12.0048871 22.1680162,11.9943229 25.0028008,12.0039684 C29.8505129,12.0205036 33.3292315,15.6945237 32.9752292,20.4525153 C32.8332595,22.3614074 32.0127852,23.9892018 30.6138305,25.4038764" id="SyjD0g8CkX"/>
                </g>
            </g>
        </g>
    </g>
<script>(function(){var a=document.querySelector('#Hkv0gICJm'),b=a.querySelectorAll('style'),c=function(d){b.forEach(function(f){var g=f.textContent;g&amp;&amp;(f.textContent=g.replace(/transform-box:[^;\r\n]*/gi,'transform-box: '+d))})};c('initial'),window.requestAnimationFrame(function(){return c('fill-box')})})();</script></svg>