<svg viewBox="0 0 319 319" version="1.1" xmlns="http://www.w3.org/2000/svg" xmlns:xlink="http://www.w3.org/1999/xlink" id="SyAStvGxm"><style>@-webkit-keyframes SyNCHFwGe7_SJXVcvfgQ_Animation{0%{-webkit-transform: rotate(0deg);transform: rotate(0deg);}24.44%{-webkit-transform: rotate(-90deg);transform: rotate(-90deg);}50%{-webkit-transform: rotate(-180deg);transform: rotate(-180deg);}74.44%{-webkit-transform: rotate(-270deg);transform: rotate(-270deg);}100%{-webkit-transform: rotate(-360deg);transform: rotate(-360deg);}}@keyframes SyNCHFwGe7_SJXVcvfgQ_Animation{0%{-webkit-transform: rotate(0deg);transform: rotate(0deg);}24.44%{-webkit-transform: rotate(-90deg);transform: rotate(-90deg);}50%{-webkit-transform: rotate(-180deg);transform: rotate(-180deg);}74.44%{-webkit-transform: rotate(-270deg);transform: rotate(-270deg);}100%{-webkit-transform: rotate(-360deg);transform: rotate(-360deg);}}@-webkit-keyframes SJQRrKwMxQ_HyYLYwGgX_Animation{0%{-webkit-transform: rotate(0deg);transform: rotate(0deg);}14.44%{-webkit-transform: rotate(90deg);transform: rotate(90deg);}28.89%{-webkit-transform: rotate(180deg);transform: rotate(180deg);}42.22%{-webkit-transform: rotate(270deg);transform: rotate(270deg);}57.78%{-webkit-transform: rotate(360deg);transform: rotate(360deg);}71.11%{-webkit-transform: rotate(450deg);transform: rotate(450deg);}85.56%{-webkit-transform: rotate(630deg);transform: rotate(630deg);}100%{-webkit-transform: rotate(720deg);transform: rotate(720deg);}}@keyframes SJQRrKwMxQ_HyYLYwGgX_Animation{0%{-webkit-transform: rotate(0deg);transform: rotate(0deg);}14.44%{-webkit-transform: rotate(90deg);transform: rotate(90deg);}28.89%{-webkit-transform: rotate(180deg);transform: rotate(180deg);}42.22%{-webkit-transform: rotate(270deg);transform: rotate(270deg);}57.78%{-webkit-transform: rotate(360deg);transform: rotate(360deg);}71.11%{-webkit-transform: rotate(450deg);transform: rotate(450deg);}85.56%{-webkit-transform: rotate(630deg);transform: rotate(630deg);}100%{-webkit-transform: rotate(720deg);transform: rotate(720deg);}}#SyAStvGxm *{-webkit-animation-duration: 3s;animation-duration: 3s;-webkit-animation-iteration-count: infinite;animation-iteration-count: infinite;-webkit-animation-timing-function: cubic-bezier(0, 0, 1, 1);animation-timing-function: cubic-bezier(0, 0, 1, 1);}#Hkx0rFwMxm{stroke: none;stroke-width: 1;fill: none;}#B1WRHYPzgQ{-webkit-transform:  translate(-26.000000px, -713.000000px);transform:  translate(-26.000000px, -713.000000px);fill: #34A1FF;}#Syf0HKwMgQ{-webkit-transform:  translate(25.000000px, 713.000000px);transform:  translate(25.000000px, 713.000000px);}#SJQRrKwMxQ_HyYLYwGgX{-webkit-animation-name: SJQRrKwMxQ_HyYLYwGgX_Animation;animation-name: SJQRrKwMxQ_HyYLYwGgX_Animation;-webkit-transform-origin: 50% 50%;transform-origin: 50% 50%;transform-box: fill-box;-webkit-transform: rotate(0deg);transform: rotate(0deg);}#SyNCHFwGe7_SJXVcvfgQ{-webkit-animation-name: SyNCHFwGe7_SJXVcvfgQ_Animation;animation-name: SyNCHFwGe7_SJXVcvfgQ_Animation;-webkit-transform-origin: 50% 50%;transform-origin: 50% 50%;transform-box: fill-box;-webkit-transform: rotate(0deg);transform: rotate(0deg);}#SJr0rKPMg7{-webkit-transform-origin: 50% 50%;transform-origin: 50% 50%;transform-box: fill-box;}#SyLRHYvfl7{-webkit-transform-origin: 0% 100%;transform-origin: 0% 100%;transform-box: fill-box;}</style>
    <!-- Generator: Sketch 50.2 (55047) - http://www.bohemiancoding.com/sketch -->
    <title>logo</title>
    <desc>Created with Sketch.</desc>
    <defs/>
    <g id="Hkx0rFwMxm" fill-rule="evenodd">
        <g id="B1WRHYPzgQ" fill-rule="nonzero">
            <g id="Syf0HKwMgQ">
                <g id="SJQRrKwMxQ_HyYLYwGgX" data-animator-group="true" data-animator-type="1"><path d="M278.35,184.48 C278.762546,182.505067 278.263166,180.449378 276.990541,178.883817 C275.717917,177.318256 273.807561,176.409529 271.79,176.41 L269.79,176.41 C266.700325,176.394179 264.014479,178.527056 263.33,181.54 C253.39,226.86 213.71,261.44 165.93,263.34 C92.36,266.34 34.61,192.52 66.46,115.68 C76.1576144,92.3433984 94.7140079,73.8049859 118.06,64.13 C170.78,42.33 222.06,62.69 248.06,101.38 C250.049408,104.388005 254.076064,105.258153 257.13,103.34 L258.31,102.6 C259.961632,101.56633 261.123035,99.9066085 261.528326,98.0008012 C261.933616,96.0949939 261.548087,94.1063007 260.46,92.49 C231.85,50.34 177.03,27.34 119.6,47.19 C87.2102487,58.3042934 61.6160747,83.5195941 50.02,115.74 C19.83,199.74 81.68,278.74 161.62,278.74 C217.850381,278.667234 266.436343,239.433851 278.35,184.48 Z" id="SJQRrKwMxQ"/></g>
                <g id="SyNCHFwGe7_SJXVcvfgQ" data-animator-group="true" data-animator-type="1"><path d="M153.05,0.17 C71.1,3.85 4.78,70.26 1.16,152.17 C0.371963136,169.689523 2.4837305,187.218881 7.41,204.05 C8.04802632,206.16154 9.57757036,207.888451 11.5965978,208.776823 C13.6156252,209.665195 15.9221823,209.626168 17.91,208.67 L18.05,208.6 C21.4193972,206.996 23.1172453,203.175841 22.05,199.6 C17.6710829,184.639509 15.7593635,169.065413 16.39,153.49 C19.39,79.12 79.55,18.65 153.9,15.39 C236.27,11.77 304.43,77.74 304.43,159.32 C304.43,238.77 239.8,303.4 160.35,303.4 C149.891109,303.400485 139.463166,302.263805 129.25,300.01 C126.54114,299.423421 123.734892,300.432584 122.02,302.61 C120.353579,304.702727 119.880891,307.505527 120.768792,310.029036 C121.656694,312.552545 123.780302,314.441834 126.39,315.03 C139.439218,317.872206 152.793647,319.064866 166.14,318.58 C248.75,315.58 316.02,248.89 319.56,166.3 C323.58,72.86 246.57,-4.04 153.05,0.17 Z" id="SyNCHFwGe7"/></g>
                <path d="M229.04,211.34 C228.847067,209.506655 228.285848,207.73116 227.39,206.12 C225.978145,203.809128 224.24403,201.711353 222.24,199.89 C218.24,195.94 214.08,191.8 210.45,188.16 L204.26,181.96 C204.57,181.32 204.89,180.67 205.2,180.02 L205.31,179.8 C206.663592,177.148173 207.878561,174.427843 208.95,171.65 C214.966328,155.065698 213.441495,136.681162 204.775133,121.314659 C196.108771,105.948155 181.164882,95.1316641 163.86,91.7 C161.98,91.34 160.03,91.09 158.26,90.87 L155.65,90.54 L155.45,90.54 L148.74,90.54 L148.36,90.54 L146.16,90.83 C144.61,91.03 142.84,91.25 141.11,91.58 C125.806602,94.2940132 112.169907,102.881542 103.11,115.51 C96.4538251,124.509022 92.5088457,135.223267 91.74,146.39 C91.7223716,146.501996 91.6956158,146.612364 91.66,146.72 L91.56,147.15 C91.5197817,147.333943 91.4996637,147.521711 91.5,147.71 L91.5,154.59 C91.4947425,154.656563 91.4947425,154.723437 91.5,154.79 C91.61,155.55 91.7,156.3 91.8,157.05 C92,158.62 92.23,160.4 92.56,162.15 C96.1443653,181.574932 109.003439,198.018397 126.991651,206.179273 C144.979863,214.340148 165.822421,213.186408 182.8,203.09 C185.4,205.723333 188.013333,208.343333 190.64,210.95 C194.03,214.33 197.54,217.83 200.94,221.3 C203.194148,223.738772 205.914437,225.700781 208.94,227.07 C212.333761,228.474502 216.146239,228.474502 219.54,227.07 C221.783302,226.221011 223.792083,224.849829 225.4,223.07 C228.170402,219.824515 229.486391,215.583705 229.04,211.34 Z M194.12,190.48 C194.75,191.15 195.4,191.83 196.06,192.48 L206.76,203.19 C210.253333,206.67 213.733333,210.156667 217.2,213.65 C217.778346,214.161414 218.034687,214.945741 217.87,215.7 C217.68984,216.302598 217.18818,216.754092 216.57,216.87 C216.06,217 215.52,217.03 214.57,216.07 C207.516667,208.996667 200.456667,201.93 193.39,194.87 L191.84,193.34 L191.54,193.04 L194.12,190.48 Z M199.03,150.86 C199.035627,176.84403 178.013916,197.932831 152.03,198.01 L151.93,198.01 C139.549229,198.045912 127.667783,193.131314 118.93,184.36 C105.4706,170.969934 101.404771,150.789487 108.629093,133.232195 C115.853415,115.674903 132.944539,104.199936 151.93,104.16 C164.38889,104.120387 176.351762,109.038656 185.18,117.83 C194.044661,126.541746 199.035433,138.451135 199.03,150.88 L199.03,150.86 Z" id="SJr0rKPMg7"/>
                <path d="M150.83,109.61 L150.27,109.61 C145.87,109.61 142.87,112.29 142.8,116.29 C142.73,120.29 145.72,123.03 150.05,123.23 C151.92339,123.275384 153.789787,123.476072 155.63,123.83 C169.725946,126.638831 179.907005,138.967228 180,153.34 C180.08,157.43 182.94,160.4 186.79,160.4 L186.93,160.4 C188.749458,160.384004 190.483407,159.625402 191.73,158.3 C193.040255,156.862077 193.705097,154.950654 193.57,153.01 C193.473248,150.496158 193.216058,147.99106 192.8,145.51 C189.27,125.45 171.26,110.02 150.83,109.61 Z" id="SyLRHYvfl7"/>
            </g>
        </g>
    </g>
<script>(function(){var a=document.querySelector('#SyAStvGxm'),b=a.querySelectorAll('style'),c=function(d){b.forEach(function(f){var g=f.textContent;g&amp;&amp;(f.textContent=g.replace(/transform-box:[^;\r\n]*/gi,'transform-box: '+d))})};c('initial'),window.requestAnimationFrame(function(){return c('fill-box')})})();</script></svg>