<svg xmlns="http://www.w3.org/2000/svg" viewBox="0 0 500 500"><defs><style>.cls-1{fill:#242828;}.cls-2{fill:#fff;}.cls-3{fill:#00e8b4;}</style></defs><title>Asset 42</title><g id="Layer_2" data-name="Layer 2"><g id="Layer_1-2" data-name="Layer 1"><circle class="cls-1" cx="250" cy="250" r="250"/><path class="cls-2" d="M354.48,145.52A104.21,104.21,0,1,0,243.94,316.71h0c2,.74,3.91,1.41,5.9,2A104.5,104.5,0,0,0,279,323.41c1.2,0,2.41,0,3.61,0a104.5,104.5,0,0,0,29.14-4.67q3-.92,5.9-2a104.28,104.28,0,0,0,36.84-171.2ZM244,256.05a52.11,52.11,0,1,1,73.69,0A52.12,52.12,0,0,1,244,256.05Z"/><polygon class="cls-3" points="115 348.16 151.84 385 267.31 269.54 191.01 272.15 115 348.16"/></g></g></svg>